<svg xmlns="http://www.w3.org/2000/svg" width="32" height="32" viewBox="0 0 32 32" fill="none"><rect width="32" height="32" rx="8" fill="#25D366"/><path d="M16 8a8 8 0 00-6.93 12.07l-1.07 3.93 4.03-1.06A8 8 0 1016 8zm4.47 11.53c-.2.56-1.16 1.1-1.6 1.17-.41.07-.93.1-1.5-.1-.34-.11-.77-.25-1.32-.5a10.6 10.6 0 01-2.1-1.3 7.6 7.6 0 01-1.5-1.5c-.41-.54-.7-1.01-.8-1.36-.1-.34-.01-.53.07-.7.08-.17.18-.25.3-.37.13-.13.18-.22.26-.36.09-.15.04-.28-.01-.4-.05-.12-.5-1.2-.68-1.65-.18-.44-.36-.38-.5-.39-.13-.01-.28-.01-.44-.01-.16 0-.41.06-.63.28-.22.22-.84.82-.84 2 0 1.18.85 2.33 1.01 2.49.16.16 1.67 2.55 4.05 3.47.57.2 1.01.32 1.36.41.57.15 1.09.13 1.5.08.46-.07 1.41-.58 1.61-1.14.2-.56.2-1.04.14-1.14-.06-.1-.22-.16-.46-.28z" fill="#fff"/></svg>